<?xml version="1.0" standalone="no"?>
<!DOCTYPE svg PUBLIC "-//W3C//DTD SVG 20010904//EN"
 "http://www.w3.org/TR/2001/REC-SVG-20010904/DTD/svg10.dtd">
<svg version="1.0" xmlns="http://www.w3.org/2000/svg"
 width="5000.000000pt" height="5000.000000pt" viewBox="0 0 5000.000000 5000.000000"
 preserveAspectRatio="xMidYMid meet">

<g transform="translate(0.000000,5000.000000) scale(0.100000,-0.100000)"
fill="#000000" stroke="none">
<path d="M35095 39743 c-180 -24 -345 -140 -418 -293 -48 -103 -67 -196 -67
-334 0 -673 661 -1508 1373 -1735 140 -44 201 -54 332 -55 138 -1 198 11 305
62 344 162 400 673 133 1205 -116 233 -243 407 -438 602 -387 388 -852 597
-1220 548z"/>
<path d="M27678 38250 c-491 -108 -1184 -527 -1878 -1134 -276 -241 -663 -642
-884 -915 -286 -355 -508 -723 -594 -986 -139 -420 12 -645 399 -596 506 63
1315 542 2067 1224 154 140 477 465 599 602 528 596 844 1152 847 1490 1 154
-48 246 -162 302 -52 26 -68 28 -182 30 -93 2 -147 -2 -212 -17z"/>
<path d="M31980 35374 c-14 -2 -59 -9 -100 -15 -221 -33 -472 -143 -663 -292
-293 -229 -485 -552 -549 -922 -28 -165 -21 -409 15 -565 67 -284 197 -519
398 -719 162 -163 357 -284 569 -355 183 -61 252 -71 475 -71 223 0 292 10
472 70 432 144 784 496 927 929 56 167 70 265 70 471 0 159 -4 207 -22 292
-64 293 -197 538 -407 748 -213 213 -462 347 -754 406 -92 19 -372 34 -431 23z"/>
<path d="M39418 34541 c-204 -55 -338 -195 -395 -411 -24 -90 -23 -305 1 -420
83 -392 343 -819 677 -1109 115 -100 135 -116 254 -195 268 -180 515 -266 758
-266 200 0 322 45 437 160 73 73 120 159 147 268 23 93 23 308 -1 422 -147
708 -846 1429 -1507 1555 -111 21 -286 19 -371 -4z"/>
<path d="M34580 32396 c-484 -87 -877 -377 -1084 -801 -107 -217 -144 -363
-153 -600 -6 -170 5 -279 44 -430 134 -514 536 -918 1050 -1055 240 -64 515
-64 756 0 468 124 853 478 1014 935 99 281 109 617 27 899 -152 527 -577 920
-1124 1041 -102 23 -426 29 -530 11z"/>
<path d="M25784 29770 c-191 -22 -416 -98 -586 -199 -484 -286 -773 -845 -719
-1395 34 -355 167 -646 410 -900 171 -177 362 -297 600 -376 160 -53 285 -73
461 -73 403 0 755 146 1041 432 175 176 283 349 359 580 123 371 95 770 -77
1116 -100 199 -264 397 -443 531 -105 80 -334 195 -455 229 -187 53 -416 74
-591 55z"/>
<path d="M37327 29439 c-243 -30 -496 -131 -699 -280 -287 -211 -492 -533
-570 -892 -30 -137 -32 -436 -5 -570 93 -458 379 -837 787 -1042 471 -237
1031 -208 1465 75 335 219 557 543 647 941 20 89 23 131 23 299 0 208 -10 278
-62 444 -161 516 -587 897 -1127 1007 -117 24 -341 33 -459 18z"/>
<path d="M28465 26804 c-716 -105 -1229 -639 -1296 -1349 -24 -254 35 -556
154 -792 58 -113 172 -268 271 -367 210 -210 458 -345 749 -408 148 -32 446
-32 594 0 601 130 1045 588 1159 1192 24 130 24 380 0 510 -40 212 -133 435
-253 603 -79 112 -249 279 -358 353 -164 112 -330 184 -525 231 -87 20 -136
25 -285 28 -99 2 -193 1 -210 -1z"/>
<path d="M18180 25070 c-1140 -46 -2058 -324 -2231 -677 -37 -74 -34 -180 6
-252 84 -153 296 -291 621 -404 357 -124 750 -198 1324 -249 196 -17 982 -17
1195 0 746 61 1350 210 1698 419 99 60 215 171 248 238 19 40 24 66 24 130 0
70 -4 87 -30 134 -38 69 -151 174 -253 234 -500 296 -1554 469 -2602 427z"/>
<path d="M31186 23839 c-349 -37 -648 -180 -897 -428 -222 -223 -361 -489
-414 -796 -23 -132 -23 -357 -1 -490 100 -586 543 -1055 1127 -1195 354 -84
755 -23 1076 166 371 218 626 583 709 1014 25 131 25 389 0 520 -56 293 -187
547 -390 758 -126 130 -237 214 -385 291 -264 135 -543 190 -825 160z"/>
<path d="M26790 20852 c-197 -66 -371 -237 -493 -484 -335 -676 -245 -1683
193 -2160 70 -77 182 -156 267 -188 81 -32 246 -39 329 -15 96 27 187 82 274
162 415 387 563 1276 330 1977 -119 354 -318 603 -559 698 -79 30 -262 36
-341 10z"/>
<path d="M12575 19906 c-867 -145 -1418 -978 -1205 -1821 67 -267 198 -495
395 -690 204 -201 453 -335 738 -397 148 -32 446 -32 594 0 384 83 714 305
928 623 110 163 193 367 231 569 26 142 24 381 -4 527 -61 306 -192 552 -412
773 -203 204 -458 341 -750 405 -103 22 -408 29 -515 11z"/>
<path d="M20905 19905 c-416 -68 -788 -313 -1017 -671 -89 -139 -174 -356
-205 -524 -24 -135 -24 -392 1 -525 56 -302 194 -565 411 -780 210 -210 455
-343 748 -407 147 -32 447 -32 589 -1 596 133 1028 568 1155 1163 26 122 26
459 -1 580 -42 195 -138 412 -253 572 -74 104 -227 257 -330 331 -160 114
-343 196 -543 244 -135 32 -413 41 -555 18z"/>
<path d="M12670 15914 c-359 -43 -645 -174 -888 -408 -130 -126 -214 -237
-291 -385 -157 -307 -203 -622 -140 -959 56 -292 191 -546 408 -763 176 -175
349 -283 580 -359 159 -53 285 -73 461 -73 404 0 755 146 1040 432 202 202
320 408 390 677 212 817 -314 1649 -1149 1815 -92 18 -336 32 -411 23z"/>
<path d="M21005 15914 c-245 -27 -472 -106 -662 -230 -348 -226 -566 -546
-655 -958 -29 -136 -31 -416 -5 -551 43 -213 134 -425 252 -590 80 -112 212
-246 324 -331 91 -69 303 -179 411 -215 181 -59 402 -85 588 -69 693 60 1242
579 1342 1268 16 110 7 401 -15 502 -66 297 -194 531 -404 740 -280 279 -616
425 -1001 435 -74 2 -153 1 -175 -1z"/>
<path d="M26588 14065 c-348 -88 -624 -526 -704 -1116 -20 -146 -22 -457 -5
-594 37 -288 131 -582 244 -760 91 -144 213 -269 320 -329 73 -41 197 -76 268
-76 351 0 658 343 793 886 50 199 61 302 61 559 0 180 -5 267 -18 350 -88 548
-325 940 -643 1061 -86 33 -228 41 -316 19z"/>
<path d="M12585 11899 c-764 -110 -1326 -821 -1255 -1588 58 -628 494 -1146
1094 -1301 624 -161 1265 87 1616 625 102 158 179 350 215 545 25 127 25 378
1 510 -22 119 -82 303 -134 407 -217 431 -641 736 -1116 802 -90 13 -333 13
-421 0z"/>
<path d="M20895 11894 c-329 -58 -599 -203 -831 -447 -188 -197 -316 -442
-376 -720 -29 -139 -32 -406 -4 -552 112 -601 555 -1053 1163 -1187 132 -29
423 -32 558 -5 310 63 549 190 771 411 218 218 347 455 411 756 26 122 26 459
-1 580 -97 447 -382 822 -777 1020 -132 67 -283 118 -417 141 -137 23 -375 25
-497 3z"/>
</g>
</svg>
